<svg xmlns="http://www.w3.org/2000/svg" version="1.1" xmlns:xlink="http://www.w3.org/1999/xlink" xmlns:svgjs="http://svgjs.dev/svgjs" width="24" height="24"><svg width="24" height="24" viewBox="0 0 24 24" fill="none" xmlns="http://www.w3.org/2000/svg">
<g clip-path="url(#clip0_2312_2)">
<path d="M0.219863 16.9702C7.48113 13.8505 10.2805 10.6266 13.3874 1.7416C27.2117 34.3754 28.8889 -6.24846 2.85267 13.523" stroke="black"></path>
<path d="M10.5981 18.594C10.5541 18.55 10.5121 18.509 10.4721 18.471C10.4301 18.435 10.3891 18.401 10.3491 18.369V18.342C10.3671 18.316 10.3941 18.282 10.4301 18.24C10.4641 18.2 10.4991 18.161 10.5351 18.123C10.5691 18.087 10.5941 18.065 10.6101 18.057H10.6371C10.6871 18.087 10.7291 18.115 10.7631 18.141C10.7971 18.167 10.8231 18.194 10.8411 18.222C10.8771 18.178 10.9171 18.132 10.9611 18.084C11.0051 18.038 11.0361 18.01 11.0541 18H11.0781C11.1581 18.05 11.2171 18.094 11.2551 18.132C11.2951 18.172 11.3151 18.212 11.3151 18.252C11.3151 18.328 11.2351 18.423 11.0751 18.537H11.0481C10.9801 18.469 10.9161 18.411 10.8561 18.363C10.8281 18.427 10.7511 18.504 10.6251 18.594H10.5981ZM10.75 18.023C10.618 18.023 10.502 17.991 10.402 17.927C10.302 17.863 10.224 17.773 10.168 17.657C10.112 17.543 10.084 17.412 10.084 17.264C10.084 17.156 10.098 17.031 10.126 16.889C10.156 16.745 10.206 16.589 10.276 16.421C10.348 16.251 10.447 16.074 10.573 15.89L10.651 15.935C10.557 16.099 10.485 16.239 10.435 16.355C10.387 16.471 10.354 16.572 10.336 16.658C10.32 16.744 10.312 16.825 10.312 16.901C10.312 17.009 10.334 17.107 10.378 17.195C10.424 17.285 10.493 17.356 10.585 17.408C10.679 17.46 10.796 17.486 10.936 17.486C11.076 17.486 11.201 17.462 11.311 17.414C11.423 17.368 11.518 17.31 11.596 17.24C11.674 17.172 11.733 17.104 11.773 17.036C11.815 16.97 11.836 16.916 11.836 16.874C11.836 16.834 11.817 16.799 11.779 16.769C11.741 16.739 11.673 16.704 11.575 16.664C11.459 16.616 11.401 16.528 11.401 16.4C11.401 16.318 11.415 16.232 11.443 16.142C11.471 16.052 11.511 15.958 11.563 15.86C11.585 15.818 11.612 15.797 11.644 15.797C11.69 15.797 11.713 15.815 11.713 15.851C11.713 15.875 11.703 15.901 11.683 15.929C11.665 15.955 11.656 15.997 11.656 16.055C11.656 16.105 11.672 16.144 11.704 16.172C11.736 16.2 11.793 16.231 11.875 16.265C11.935 16.291 11.978 16.32 12.004 16.352C12.032 16.382 12.046 16.429 12.046 16.493C12.046 16.563 12.032 16.656 12.004 16.772C11.978 16.888 11.936 17.012 11.878 17.144C11.82 17.278 11.742 17.407 11.644 17.531C11.516 17.695 11.375 17.818 11.221 17.9C11.067 17.982 10.91 18.023 10.75 18.023ZM11.5736 16.126C11.5456 16.126 11.5316 16.111 11.5316 16.081C11.5316 16.059 11.5406 16.032 11.5586 16C11.5966 15.932 11.6276 15.873 11.6516 15.823C11.6776 15.773 11.6946 15.732 11.7026 15.7C11.7166 15.654 11.7286 15.589 11.7386 15.505C11.7486 15.419 11.7566 15.313 11.7626 15.187C11.7726 14.973 11.7816 14.799 11.7896 14.665C11.7976 14.529 11.8046 14.421 11.8106 14.341C11.8186 14.259 11.8266 14.192 11.8346 14.14C11.8426 14.086 11.8526 14.035 11.8646 13.987C11.8786 13.929 11.8956 13.87 11.9156 13.81C11.9356 13.75 11.9586 13.691 11.9846 13.633L12.0446 13.651C12.0206 13.767 12.0016 13.926 11.9876 14.128C11.9756 14.328 11.9696 14.571 11.9696 14.857C11.9696 14.981 11.9756 15.095 11.9876 15.199C11.9996 15.303 12.0286 15.386 12.0746 15.448C12.1206 15.51 12.1926 15.541 12.2906 15.541C12.3786 15.541 12.4226 15.598 12.4226 15.712C12.4226 15.79 12.4066 15.851 12.3746 15.895C12.3446 15.939 12.3076 15.97 12.2636 15.988C12.2216 16.006 12.1816 16.015 12.1436 16.015C12.0736 16.015 12.0156 16.002 11.9696 15.976C11.9256 15.948 11.8916 15.916 11.8676 15.88C11.8436 15.844 11.8256 15.812 11.8136 15.784C11.8016 15.818 11.7856 15.858 11.7656 15.904C11.7476 15.948 11.7226 15.996 11.6906 16.048C11.6606 16.1 11.6216 16.126 11.5736 16.126ZM12.5463 16.594C12.5023 16.55 12.4603 16.509 12.4203 16.471C12.3783 16.435 12.3373 16.401 12.2973 16.369V16.342C12.3153 16.316 12.3423 16.282 12.3783 16.24C12.4123 16.2 12.4473 16.161 12.4833 16.123C12.5173 16.087 12.5423 16.065 12.5583 16.057H12.5853C12.6353 16.087 12.6773 16.115 12.7113 16.141C12.7453 16.167 12.7713 16.194 12.7893 16.222C12.8253 16.178 12.8653 16.132 12.9093 16.084C12.9533 16.038 12.9843 16.01 13.0023 16H13.0263C13.1063 16.05 13.1653 16.094 13.2033 16.132C13.2433 16.172 13.2633 16.212 13.2633 16.252C13.2633 16.328 13.1833 16.423 13.0233 16.537H12.9963C12.9283 16.469 12.8643 16.411 12.8043 16.363C12.7763 16.427 12.6993 16.504 12.5733 16.594H12.5463ZM12.1445 16C12.0605 16 12.0185 15.943 12.0185 15.829C12.0185 15.755 12.0335 15.696 12.0635 15.652C12.0915 15.608 12.1265 15.576 12.1685 15.556C12.2125 15.536 12.2545 15.526 12.2945 15.526C12.4145 15.526 12.5105 15.48 12.5825 15.388L12.6845 15.253C12.7165 15.209 12.7575 15.187 12.8075 15.187C12.8535 15.187 12.8925 15.197 12.9245 15.217C12.9565 15.237 12.9975 15.247 13.0475 15.247C13.0735 15.247 13.0945 15.259 13.1105 15.283C13.1265 15.307 13.1345 15.333 13.1345 15.361C13.1345 15.431 13.1125 15.483 13.0685 15.517C13.0245 15.549 12.9835 15.565 12.9455 15.565C12.8895 15.565 12.8405 15.553 12.7985 15.529C12.7605 15.505 12.7315 15.493 12.7115 15.493C12.6875 15.493 12.6655 15.507 12.6455 15.535C12.6255 15.561 12.6015 15.596 12.5735 15.64C12.5335 15.704 12.4925 15.764 12.4505 15.82C12.4105 15.874 12.3655 15.918 12.3155 15.952C12.2675 15.984 12.2105 16 12.1445 16ZM12.9443 15C12.9283 15 12.9103 14.991 12.8903 14.973C12.8683 14.955 12.8573 14.925 12.8573 14.883C12.8573 14.821 12.8773 14.772 12.9173 14.736C12.9553 14.7 12.9973 14.682 13.0433 14.682C13.2013 14.682 13.3083 14.546 13.3643 14.274C13.3723 14.24 13.3783 14.192 13.3823 14.13C13.3883 14.068 13.3933 13.991 13.3973 13.899C13.4013 13.805 13.4073 13.701 13.4153 13.587C13.4253 13.473 13.4333 13.347 13.4393 13.209C13.4453 13.101 13.4543 13.004 13.4663 12.918C13.4783 12.83 13.4963 12.744 13.5203 12.66C13.5463 12.576 13.5783 12.488 13.6163 12.396L13.6763 12.417C13.6543 12.533 13.6363 12.692 13.6223 12.894C13.6103 13.094 13.6043 13.337 13.6043 13.623C13.6043 13.713 13.6063 13.799 13.6103 13.881C13.6163 13.963 13.6293 14.036 13.6493 14.1C13.6713 14.164 13.7033 14.215 13.7453 14.253C13.7893 14.289 13.8493 14.307 13.9253 14.307C14.0113 14.307 14.0543 14.364 14.0543 14.478C14.0543 14.554 14.0383 14.614 14.0063 14.658C13.9763 14.702 13.9403 14.734 13.8983 14.754C13.8563 14.772 13.8163 14.781 13.7783 14.781C13.7043 14.781 13.6443 14.767 13.5983 14.739C13.5523 14.709 13.5173 14.674 13.4933 14.634C13.4693 14.592 13.4513 14.553 13.4393 14.517C13.4153 14.597 13.3833 14.674 13.3433 14.748C13.3033 14.82 13.2513 14.88 13.1873 14.928C13.1233 14.976 13.0423 15 12.9443 15ZM13.7764 15C13.6924 15 13.6504 14.943 13.6504 14.829C13.6504 14.753 13.6654 14.693 13.6954 14.649C13.7254 14.605 13.7614 14.574 13.8034 14.556C13.8474 14.536 13.8884 14.526 13.9264 14.526C14.0204 14.526 14.1204 14.516 14.2264 14.496C14.3344 14.474 14.4374 14.438 14.5354 14.388C14.6354 14.336 14.7194 14.266 14.7874 14.178C14.7394 14.176 14.6784 14.171 14.6044 14.163C14.5304 14.153 14.4524 14.141 14.3704 14.127C14.2904 14.111 14.2164 14.094 14.1484 14.076C14.0804 14.056 14.0294 14.037 13.9954 14.019L13.9714 13.989C13.9754 13.973 13.9834 13.95 13.9954 13.92C14.0074 13.888 14.0214 13.856 14.0374 13.824C14.0554 13.79 14.0744 13.761 14.0944 13.737C14.1164 13.713 14.1374 13.701 14.1574 13.701C14.1714 13.701 14.1854 13.705 14.1994 13.713C14.2154 13.719 14.2234 13.73 14.2234 13.746V13.758C14.2834 13.778 14.3574 13.798 14.4454 13.818C14.5354 13.838 14.6264 13.856 14.7184 13.872C14.8104 13.886 14.8894 13.897 14.9554 13.905L15.0784 13.92L15.0844 13.959C15.0344 14.035 14.9834 14.112 14.9314 14.19C14.8794 14.266 14.8234 14.342 14.7634 14.418C14.6794 14.522 14.5894 14.619 14.4934 14.709C14.3994 14.797 14.2934 14.868 14.1754 14.922C14.0594 14.974 13.9264 15 13.7764 15ZM14.0783 14.138C14.0483 14.138 14.0333 14.125 14.0333 14.099C14.0333 14.079 14.0463 14.045 14.0723 13.997C14.1003 13.949 14.1363 13.896 14.1803 13.838C14.2243 13.78 14.2713 13.727 14.3213 13.679C14.3613 13.641 14.4183 13.596 14.4923 13.544C14.5683 13.49 14.6613 13.427 14.7713 13.355C14.8133 13.329 14.8463 13.305 14.8703 13.283C14.8963 13.259 14.9163 13.228 14.9303 13.19C14.9443 13.152 14.9523 13.096 14.9543 13.022L14.9753 12.401C14.9793 12.259 14.9983 12.117 15.0323 11.975C15.0683 11.831 15.1213 11.682 15.1913 11.528L15.2543 11.552C15.2463 11.59 15.2383 11.642 15.2303 11.708C15.2243 11.772 15.2193 11.85 15.2153 11.942C15.2113 12.042 15.2073 12.128 15.2033 12.2C15.2013 12.27 15.1983 12.333 15.1943 12.389C15.1923 12.445 15.1883 12.5 15.1823 12.554C15.1783 12.608 15.1733 12.668 15.1673 12.734C15.1553 12.854 15.1343 12.969 15.1043 13.079C15.0763 13.189 15.0313 13.288 14.9693 13.376C14.9393 13.418 14.9043 13.458 14.8643 13.496C14.8263 13.532 14.7813 13.564 14.7293 13.592C14.6493 13.636 14.5793 13.676 14.5193 13.712C14.4613 13.748 14.4153 13.781 14.3813 13.811C14.3073 13.877 14.2453 13.956 14.1953 14.048C14.1653 14.108 14.1263 14.138 14.0783 14.138ZM15.9501 16.697L15.8841 16.682C15.8941 16.636 15.9041 16.563 15.9141 16.463C15.9241 16.363 15.9321 16.241 15.9381 16.097L15.9651 15.38C15.9691 15.29 15.9731 15.211 15.9771 15.143C15.9831 15.075 15.9941 15.008 16.0101 14.942C16.0261 14.874 16.0501 14.797 16.0821 14.711C16.1161 14.625 16.1611 14.519 16.2171 14.393L16.2801 14.417C16.2641 14.457 16.2501 14.528 16.2381 14.63C16.2281 14.73 16.2181 14.861 16.2081 15.023L16.1571 15.869C16.1491 15.997 16.1281 16.13 16.0941 16.268C16.0621 16.406 16.0141 16.549 15.9501 16.697Z" fill="black"></path>
</g>
<defs>
<clipPath id="SvgjsClipPath1002">
<rect width="24" height="24" fill="white"></rect>
</clipPath>
</defs>
</svg><style>@media (prefers-color-scheme: light) { :root { filter: none; } }
@media (prefers-color-scheme: dark) { :root { filter: invert(100%); } }
</style></svg>